<mxfile host="app.diagrams.net" modified="2024-05-16T20:46:24.421Z" agent="Mozilla/5.0 (Windows NT 10.0; Win64; x64) AppleWebKit/537.36 (KHTML, like Gecko) Chrome/124.0.0.0 Safari/537.36" etag="9taSEUAOKLDU68SRJpJZ" version="24.4.0" type="device">
  <diagram id="R2lEEEUBdFMjLlhIrx00" name="Page-1">
    <mxGraphModel dx="1365" dy="1927" grid="1" gridSize="10" guides="1" tooltips="1" connect="1" arrows="1" fold="1" page="1" pageScale="1" pageWidth="850" pageHeight="1100" math="0" shadow="0" extFonts="Permanent Marker^https://fonts.googleapis.com/css?family=Permanent+Marker">
      <root>
        <mxCell id="0" />
        <mxCell id="1" parent="0" />
        <mxCell id="6fW7ZVG2jqloHNHD9Qu5-41" value="" style="rounded=0;whiteSpace=wrap;html=1;" vertex="1" parent="1">
          <mxGeometry x="250" y="-250" width="340" height="300" as="geometry" />
        </mxCell>
        <mxCell id="C-vyLk0tnHw3VtMMgP7b-23" value="usernames" style="shape=table;startSize=30;container=1;collapsible=1;childLayout=tableLayout;fixedRows=1;rowLines=0;fontStyle=1;align=center;resizeLast=1;" parent="1" vertex="1">
          <mxGeometry x="330" y="-240" width="250" height="90" as="geometry" />
        </mxCell>
        <mxCell id="C-vyLk0tnHw3VtMMgP7b-24" value="" style="shape=partialRectangle;collapsible=0;dropTarget=0;pointerEvents=0;fillColor=none;points=[[0,0.5],[1,0.5]];portConstraint=eastwest;top=0;left=0;right=0;bottom=1;" parent="C-vyLk0tnHw3VtMMgP7b-23" vertex="1">
          <mxGeometry y="30" width="250" height="30" as="geometry" />
        </mxCell>
        <mxCell id="C-vyLk0tnHw3VtMMgP7b-25" value="Name" style="shape=partialRectangle;overflow=hidden;connectable=0;fillColor=none;top=0;left=0;bottom=0;right=0;fontStyle=1;" parent="C-vyLk0tnHw3VtMMgP7b-24" vertex="1">
          <mxGeometry width="50" height="30" as="geometry">
            <mxRectangle width="50" height="30" as="alternateBounds" />
          </mxGeometry>
        </mxCell>
        <mxCell id="C-vyLk0tnHw3VtMMgP7b-26" value="string" style="shape=partialRectangle;overflow=hidden;connectable=0;fillColor=none;top=0;left=0;bottom=0;right=0;align=left;spacingLeft=6;fontStyle=5;" parent="C-vyLk0tnHw3VtMMgP7b-24" vertex="1">
          <mxGeometry x="50" width="200" height="30" as="geometry">
            <mxRectangle width="200" height="30" as="alternateBounds" />
          </mxGeometry>
        </mxCell>
        <mxCell id="6fW7ZVG2jqloHNHD9Qu5-151" style="shape=partialRectangle;collapsible=0;dropTarget=0;pointerEvents=0;fillColor=none;points=[[0,0.5],[1,0.5]];portConstraint=eastwest;top=0;left=0;right=0;bottom=1;" vertex="1" parent="C-vyLk0tnHw3VtMMgP7b-23">
          <mxGeometry y="60" width="250" height="30" as="geometry" />
        </mxCell>
        <mxCell id="6fW7ZVG2jqloHNHD9Qu5-152" value="User" style="shape=partialRectangle;overflow=hidden;connectable=0;fillColor=none;top=0;left=0;bottom=0;right=0;fontStyle=1;" vertex="1" parent="6fW7ZVG2jqloHNHD9Qu5-151">
          <mxGeometry width="50" height="30" as="geometry">
            <mxRectangle width="50" height="30" as="alternateBounds" />
          </mxGeometry>
        </mxCell>
        <mxCell id="6fW7ZVG2jqloHNHD9Qu5-153" value="string" style="shape=partialRectangle;overflow=hidden;connectable=0;fillColor=none;top=0;left=0;bottom=0;right=0;align=left;spacingLeft=6;fontStyle=5;" vertex="1" parent="6fW7ZVG2jqloHNHD9Qu5-151">
          <mxGeometry x="50" width="200" height="30" as="geometry">
            <mxRectangle width="200" height="30" as="alternateBounds" />
          </mxGeometry>
        </mxCell>
        <mxCell id="6fW7ZVG2jqloHNHD9Qu5-1" value="" style="shape=datastore;whiteSpace=wrap;html=1;" vertex="1" parent="1">
          <mxGeometry x="260" y="-200" width="60" height="150" as="geometry" />
        </mxCell>
        <mxCell id="6fW7ZVG2jqloHNHD9Qu5-17" value="messages" style="shape=table;startSize=30;container=1;collapsible=1;childLayout=tableLayout;fixedRows=1;rowLines=0;fontStyle=1;align=center;resizeLast=1;" vertex="1" parent="1">
          <mxGeometry x="330" y="-140" width="250" height="180" as="geometry" />
        </mxCell>
        <mxCell id="6fW7ZVG2jqloHNHD9Qu5-18" value="" style="shape=partialRectangle;collapsible=0;dropTarget=0;pointerEvents=0;fillColor=none;points=[[0,0.5],[1,0.5]];portConstraint=eastwest;top=0;left=0;right=0;bottom=1;" vertex="1" parent="6fW7ZVG2jqloHNHD9Qu5-17">
          <mxGeometry y="30" width="250" height="30" as="geometry" />
        </mxCell>
        <mxCell id="6fW7ZVG2jqloHNHD9Qu5-19" value="Sender" style="shape=partialRectangle;overflow=hidden;connectable=0;fillColor=none;top=0;left=0;bottom=0;right=0;fontStyle=1;" vertex="1" parent="6fW7ZVG2jqloHNHD9Qu5-18">
          <mxGeometry width="60" height="30" as="geometry">
            <mxRectangle width="60" height="30" as="alternateBounds" />
          </mxGeometry>
        </mxCell>
        <mxCell id="6fW7ZVG2jqloHNHD9Qu5-20" value="string" style="shape=partialRectangle;overflow=hidden;connectable=0;fillColor=none;top=0;left=0;bottom=0;right=0;align=left;spacingLeft=6;fontStyle=5;" vertex="1" parent="6fW7ZVG2jqloHNHD9Qu5-18">
          <mxGeometry x="60" width="190" height="30" as="geometry">
            <mxRectangle width="190" height="30" as="alternateBounds" />
          </mxGeometry>
        </mxCell>
        <mxCell id="6fW7ZVG2jqloHNHD9Qu5-33" style="shape=partialRectangle;collapsible=0;dropTarget=0;pointerEvents=0;fillColor=none;points=[[0,0.5],[1,0.5]];portConstraint=eastwest;top=0;left=0;right=0;bottom=1;" vertex="1" parent="6fW7ZVG2jqloHNHD9Qu5-17">
          <mxGeometry y="60" width="250" height="30" as="geometry" />
        </mxCell>
        <mxCell id="6fW7ZVG2jqloHNHD9Qu5-34" value="Receiver" style="shape=partialRectangle;overflow=hidden;connectable=0;fillColor=none;top=0;left=0;bottom=0;right=0;fontStyle=1;" vertex="1" parent="6fW7ZVG2jqloHNHD9Qu5-33">
          <mxGeometry width="60" height="30" as="geometry">
            <mxRectangle width="60" height="30" as="alternateBounds" />
          </mxGeometry>
        </mxCell>
        <mxCell id="6fW7ZVG2jqloHNHD9Qu5-35" value="string" style="shape=partialRectangle;overflow=hidden;connectable=0;fillColor=none;top=0;left=0;bottom=0;right=0;align=left;spacingLeft=6;fontStyle=5;" vertex="1" parent="6fW7ZVG2jqloHNHD9Qu5-33">
          <mxGeometry x="60" width="190" height="30" as="geometry">
            <mxRectangle width="190" height="30" as="alternateBounds" />
          </mxGeometry>
        </mxCell>
        <mxCell id="6fW7ZVG2jqloHNHD9Qu5-30" style="shape=partialRectangle;collapsible=0;dropTarget=0;pointerEvents=0;fillColor=none;points=[[0,0.5],[1,0.5]];portConstraint=eastwest;top=0;left=0;right=0;bottom=1;" vertex="1" parent="6fW7ZVG2jqloHNHD9Qu5-17">
          <mxGeometry y="90" width="250" height="30" as="geometry" />
        </mxCell>
        <mxCell id="6fW7ZVG2jqloHNHD9Qu5-31" value="read" style="shape=partialRectangle;overflow=hidden;connectable=0;fillColor=none;top=0;left=0;bottom=0;right=0;fontStyle=1;" vertex="1" parent="6fW7ZVG2jqloHNHD9Qu5-30">
          <mxGeometry width="60" height="30" as="geometry">
            <mxRectangle width="60" height="30" as="alternateBounds" />
          </mxGeometry>
        </mxCell>
        <mxCell id="6fW7ZVG2jqloHNHD9Qu5-32" value="bool" style="shape=partialRectangle;overflow=hidden;connectable=0;fillColor=none;top=0;left=0;bottom=0;right=0;align=left;spacingLeft=6;fontStyle=5;" vertex="1" parent="6fW7ZVG2jqloHNHD9Qu5-30">
          <mxGeometry x="60" width="190" height="30" as="geometry">
            <mxRectangle width="190" height="30" as="alternateBounds" />
          </mxGeometry>
        </mxCell>
        <mxCell id="6fW7ZVG2jqloHNHD9Qu5-27" style="shape=partialRectangle;collapsible=0;dropTarget=0;pointerEvents=0;fillColor=none;points=[[0,0.5],[1,0.5]];portConstraint=eastwest;top=0;left=0;right=0;bottom=1;" vertex="1" parent="6fW7ZVG2jqloHNHD9Qu5-17">
          <mxGeometry y="120" width="250" height="30" as="geometry" />
        </mxCell>
        <mxCell id="6fW7ZVG2jqloHNHD9Qu5-28" value="text" style="shape=partialRectangle;overflow=hidden;connectable=0;fillColor=none;top=0;left=0;bottom=0;right=0;fontStyle=1;" vertex="1" parent="6fW7ZVG2jqloHNHD9Qu5-27">
          <mxGeometry width="60" height="30" as="geometry">
            <mxRectangle width="60" height="30" as="alternateBounds" />
          </mxGeometry>
        </mxCell>
        <mxCell id="6fW7ZVG2jqloHNHD9Qu5-29" value="string" style="shape=partialRectangle;overflow=hidden;connectable=0;fillColor=none;top=0;left=0;bottom=0;right=0;align=left;spacingLeft=6;fontStyle=5;" vertex="1" parent="6fW7ZVG2jqloHNHD9Qu5-27">
          <mxGeometry x="60" width="190" height="30" as="geometry">
            <mxRectangle width="190" height="30" as="alternateBounds" />
          </mxGeometry>
        </mxCell>
        <mxCell id="6fW7ZVG2jqloHNHD9Qu5-24" style="shape=partialRectangle;collapsible=0;dropTarget=0;pointerEvents=0;fillColor=none;points=[[0,0.5],[1,0.5]];portConstraint=eastwest;top=0;left=0;right=0;bottom=1;" vertex="1" parent="6fW7ZVG2jqloHNHD9Qu5-17">
          <mxGeometry y="150" width="250" height="30" as="geometry" />
        </mxCell>
        <mxCell id="6fW7ZVG2jqloHNHD9Qu5-25" value="date" style="shape=partialRectangle;overflow=hidden;connectable=0;fillColor=none;top=0;left=0;bottom=0;right=0;fontStyle=1;" vertex="1" parent="6fW7ZVG2jqloHNHD9Qu5-24">
          <mxGeometry width="60" height="30" as="geometry">
            <mxRectangle width="60" height="30" as="alternateBounds" />
          </mxGeometry>
        </mxCell>
        <mxCell id="6fW7ZVG2jqloHNHD9Qu5-26" value="datetime" style="shape=partialRectangle;overflow=hidden;connectable=0;fillColor=none;top=0;left=0;bottom=0;right=0;align=left;spacingLeft=6;fontStyle=5;" vertex="1" parent="6fW7ZVG2jqloHNHD9Qu5-24">
          <mxGeometry x="60" width="190" height="30" as="geometry">
            <mxRectangle width="190" height="30" as="alternateBounds" />
          </mxGeometry>
        </mxCell>
        <mxCell id="6fW7ZVG2jqloHNHD9Qu5-39" value="MongoDB" style="text;html=1;align=center;verticalAlign=middle;whiteSpace=wrap;rounded=0;" vertex="1" parent="1">
          <mxGeometry x="250" y="-280" width="60" height="30" as="geometry" />
        </mxCell>
        <mxCell id="6fW7ZVG2jqloHNHD9Qu5-42" value="Web Endpoints" style="text;html=1;align=center;verticalAlign=middle;whiteSpace=wrap;rounded=5;" vertex="1" parent="1">
          <mxGeometry x="237.5" y="65" width="105" height="40" as="geometry" />
        </mxCell>
        <mxCell id="6fW7ZVG2jqloHNHD9Qu5-43" value="/createuser createuser.html" style="shape=table;startSize=30;container=1;collapsible=1;childLayout=tableLayout;fixedRows=1;rowLines=0;fontStyle=1;align=center;resizeLast=1;" vertex="1" parent="1">
          <mxGeometry x="250" y="105" width="650" height="180" as="geometry" />
        </mxCell>
        <mxCell id="6fW7ZVG2jqloHNHD9Qu5-53" style="shape=partialRectangle;collapsible=0;dropTarget=0;pointerEvents=0;fillColor=none;points=[[0,0.5],[1,0.5]];portConstraint=eastwest;top=0;left=0;right=0;bottom=1;" vertex="1" parent="6fW7ZVG2jqloHNHD9Qu5-43">
          <mxGeometry y="30" width="650" height="30" as="geometry" />
        </mxCell>
        <mxCell id="6fW7ZVG2jqloHNHD9Qu5-54" value="form id" style="shape=partialRectangle;overflow=hidden;connectable=0;fillColor=none;top=0;left=0;bottom=0;right=0;fontStyle=1;" vertex="1" parent="6fW7ZVG2jqloHNHD9Qu5-53">
          <mxGeometry width="120" height="30" as="geometry">
            <mxRectangle width="120" height="30" as="alternateBounds" />
          </mxGeometry>
        </mxCell>
        <mxCell id="6fW7ZVG2jqloHNHD9Qu5-55" value="action" style="shape=partialRectangle;overflow=hidden;connectable=0;fillColor=none;top=0;left=0;bottom=0;right=0;align=left;spacingLeft=6;fontStyle=1;" vertex="1" parent="6fW7ZVG2jqloHNHD9Qu5-53">
          <mxGeometry x="120" width="265" height="30" as="geometry">
            <mxRectangle width="265" height="30" as="alternateBounds" />
          </mxGeometry>
        </mxCell>
        <mxCell id="6fW7ZVG2jqloHNHD9Qu5-147" value="database actions" style="shape=partialRectangle;overflow=hidden;connectable=0;fillColor=none;top=0;left=0;bottom=0;right=0;align=left;spacingLeft=6;fontStyle=1;" vertex="1" parent="6fW7ZVG2jqloHNHD9Qu5-53">
          <mxGeometry x="385" width="155" height="30" as="geometry">
            <mxRectangle width="155" height="30" as="alternateBounds" />
          </mxGeometry>
        </mxCell>
        <mxCell id="6fW7ZVG2jqloHNHD9Qu5-56" value="method" style="shape=partialRectangle;overflow=hidden;connectable=0;fillColor=none;top=0;left=0;bottom=0;right=0;align=left;spacingLeft=6;fontStyle=1;" vertex="1" parent="6fW7ZVG2jqloHNHD9Qu5-53">
          <mxGeometry x="540" width="110" height="30" as="geometry">
            <mxRectangle width="110" height="30" as="alternateBounds" />
          </mxGeometry>
        </mxCell>
        <mxCell id="6fW7ZVG2jqloHNHD9Qu5-44" value="" style="shape=partialRectangle;collapsible=0;dropTarget=0;pointerEvents=0;fillColor=none;points=[[0,0.5],[1,0.5]];portConstraint=eastwest;top=0;left=0;right=0;bottom=1;" vertex="1" parent="6fW7ZVG2jqloHNHD9Qu5-43">
          <mxGeometry y="60" width="650" height="60" as="geometry" />
        </mxCell>
        <mxCell id="6fW7ZVG2jqloHNHD9Qu5-45" value="chatuser" style="shape=partialRectangle;overflow=hidden;connectable=0;fillColor=none;top=0;left=0;bottom=0;right=0;fontStyle=1;" vertex="1" parent="6fW7ZVG2jqloHNHD9Qu5-44">
          <mxGeometry width="120" height="60" as="geometry">
            <mxRectangle width="120" height="60" as="alternateBounds" />
          </mxGeometry>
        </mxCell>
        <mxCell id="6fW7ZVG2jqloHNHD9Qu5-46" value="" style="shape=partialRectangle;overflow=hidden;connectable=0;fillColor=none;top=0;left=0;bottom=0;right=0;align=left;spacingLeft=6;fontStyle=5;" vertex="1" parent="6fW7ZVG2jqloHNHD9Qu5-44">
          <mxGeometry x="120" width="265" height="60" as="geometry">
            <mxRectangle width="265" height="60" as="alternateBounds" />
          </mxGeometry>
        </mxCell>
        <mxCell id="6fW7ZVG2jqloHNHD9Qu5-148" value="usernames.insert_one()" style="shape=partialRectangle;overflow=hidden;connectable=0;fillColor=none;top=0;left=0;bottom=0;right=0;align=left;spacingLeft=6;fontStyle=5;" vertex="1" parent="6fW7ZVG2jqloHNHD9Qu5-44">
          <mxGeometry x="385" width="155" height="60" as="geometry">
            <mxRectangle width="155" height="60" as="alternateBounds" />
          </mxGeometry>
        </mxCell>
        <mxCell id="6fW7ZVG2jqloHNHD9Qu5-57" value="POST" style="shape=partialRectangle;overflow=hidden;connectable=0;fillColor=none;top=0;left=0;bottom=0;right=0;align=left;spacingLeft=6;fontStyle=5;" vertex="1" parent="6fW7ZVG2jqloHNHD9Qu5-44">
          <mxGeometry x="540" width="110" height="60" as="geometry">
            <mxRectangle width="110" height="60" as="alternateBounds" />
          </mxGeometry>
        </mxCell>
        <mxCell id="6fW7ZVG2jqloHNHD9Qu5-47" style="shape=partialRectangle;collapsible=0;dropTarget=0;pointerEvents=0;fillColor=none;points=[[0,0.5],[1,0.5]];portConstraint=eastwest;top=0;left=0;right=0;bottom=1;" vertex="1" parent="6fW7ZVG2jqloHNHD9Qu5-43">
          <mxGeometry y="120" width="650" height="30" as="geometry" />
        </mxCell>
        <mxCell id="6fW7ZVG2jqloHNHD9Qu5-48" value="form_s" style="shape=partialRectangle;overflow=hidden;connectable=0;fillColor=none;top=0;left=0;bottom=0;right=0;fontStyle=1;" vertex="1" parent="6fW7ZVG2jqloHNHD9Qu5-47">
          <mxGeometry width="120" height="30" as="geometry">
            <mxRectangle width="120" height="30" as="alternateBounds" />
          </mxGeometry>
        </mxCell>
        <mxCell id="6fW7ZVG2jqloHNHD9Qu5-49" value="/chatwith" style="shape=partialRectangle;overflow=hidden;connectable=0;fillColor=none;top=0;left=0;bottom=0;right=0;align=left;spacingLeft=6;fontStyle=5;" vertex="1" parent="6fW7ZVG2jqloHNHD9Qu5-47">
          <mxGeometry x="120" width="265" height="30" as="geometry">
            <mxRectangle width="265" height="30" as="alternateBounds" />
          </mxGeometry>
        </mxCell>
        <mxCell id="6fW7ZVG2jqloHNHD9Qu5-149" style="shape=partialRectangle;overflow=hidden;connectable=0;fillColor=none;top=0;left=0;bottom=0;right=0;align=left;spacingLeft=6;fontStyle=5;" vertex="1" parent="6fW7ZVG2jqloHNHD9Qu5-47">
          <mxGeometry x="385" width="155" height="30" as="geometry">
            <mxRectangle width="155" height="30" as="alternateBounds" />
          </mxGeometry>
        </mxCell>
        <mxCell id="6fW7ZVG2jqloHNHD9Qu5-58" value="GET" style="shape=partialRectangle;overflow=hidden;connectable=0;fillColor=none;top=0;left=0;bottom=0;right=0;align=left;spacingLeft=6;fontStyle=5;" vertex="1" parent="6fW7ZVG2jqloHNHD9Qu5-47">
          <mxGeometry x="540" width="110" height="30" as="geometry">
            <mxRectangle width="110" height="30" as="alternateBounds" />
          </mxGeometry>
        </mxCell>
        <mxCell id="6fW7ZVG2jqloHNHD9Qu5-50" style="shape=partialRectangle;collapsible=0;dropTarget=0;pointerEvents=0;fillColor=none;points=[[0,0.5],[1,0.5]];portConstraint=eastwest;top=0;left=0;right=0;bottom=1;" vertex="1" parent="6fW7ZVG2jqloHNHD9Qu5-43">
          <mxGeometry y="150" width="650" height="30" as="geometry" />
        </mxCell>
        <mxCell id="6fW7ZVG2jqloHNHD9Qu5-51" value="logout" style="shape=partialRectangle;overflow=hidden;connectable=0;fillColor=none;top=0;left=0;bottom=0;right=0;fontStyle=1;" vertex="1" parent="6fW7ZVG2jqloHNHD9Qu5-50">
          <mxGeometry width="120" height="30" as="geometry">
            <mxRectangle width="120" height="30" as="alternateBounds" />
          </mxGeometry>
        </mxCell>
        <mxCell id="6fW7ZVG2jqloHNHD9Qu5-52" value="/logout_chat" style="shape=partialRectangle;overflow=hidden;connectable=0;fillColor=none;top=0;left=0;bottom=0;right=0;align=left;spacingLeft=6;fontStyle=5;" vertex="1" parent="6fW7ZVG2jqloHNHD9Qu5-50">
          <mxGeometry x="120" width="265" height="30" as="geometry">
            <mxRectangle width="265" height="30" as="alternateBounds" />
          </mxGeometry>
        </mxCell>
        <mxCell id="6fW7ZVG2jqloHNHD9Qu5-150" style="shape=partialRectangle;overflow=hidden;connectable=0;fillColor=none;top=0;left=0;bottom=0;right=0;align=left;spacingLeft=6;fontStyle=5;" vertex="1" parent="6fW7ZVG2jqloHNHD9Qu5-50">
          <mxGeometry x="385" width="155" height="30" as="geometry">
            <mxRectangle width="155" height="30" as="alternateBounds" />
          </mxGeometry>
        </mxCell>
        <mxCell id="6fW7ZVG2jqloHNHD9Qu5-59" style="shape=partialRectangle;overflow=hidden;connectable=0;fillColor=none;top=0;left=0;bottom=0;right=0;align=left;spacingLeft=6;fontStyle=5;" vertex="1" parent="6fW7ZVG2jqloHNHD9Qu5-50">
          <mxGeometry x="540" width="110" height="30" as="geometry">
            <mxRectangle width="110" height="30" as="alternateBounds" />
          </mxGeometry>
        </mxCell>
        <mxCell id="6fW7ZVG2jqloHNHD9Qu5-60" value="/adduser &#xa;&#xa;session[&#39;chatuser&#39;] = request.form[&#39;chatuser&#39;]" style="shape=partialRectangle;overflow=hidden;connectable=0;fillColor=none;top=0;left=0;bottom=0;right=0;align=left;spacingLeft=6;fontStyle=5;" vertex="1" parent="1">
          <mxGeometry x="370" y="170" width="267.5" height="50" as="geometry">
            <mxRectangle width="220" height="30" as="alternateBounds" />
          </mxGeometry>
        </mxCell>
        <mxCell id="6fW7ZVG2jqloHNHD9Qu5-61" value="/chatwith  chatwith.html" style="shape=table;startSize=30;container=1;collapsible=1;childLayout=tableLayout;fixedRows=1;rowLines=0;fontStyle=1;align=center;resizeLast=1;" vertex="1" parent="1">
          <mxGeometry x="250" y="300" width="650" height="150" as="geometry" />
        </mxCell>
        <mxCell id="6fW7ZVG2jqloHNHD9Qu5-62" style="shape=partialRectangle;collapsible=0;dropTarget=0;pointerEvents=0;fillColor=none;points=[[0,0.5],[1,0.5]];portConstraint=eastwest;top=0;left=0;right=0;bottom=1;" vertex="1" parent="6fW7ZVG2jqloHNHD9Qu5-61">
          <mxGeometry y="30" width="650" height="30" as="geometry" />
        </mxCell>
        <mxCell id="6fW7ZVG2jqloHNHD9Qu5-63" value="form id" style="shape=partialRectangle;overflow=hidden;connectable=0;fillColor=none;top=0;left=0;bottom=0;right=0;fontStyle=1;" vertex="1" parent="6fW7ZVG2jqloHNHD9Qu5-62">
          <mxGeometry width="140" height="30" as="geometry">
            <mxRectangle width="140" height="30" as="alternateBounds" />
          </mxGeometry>
        </mxCell>
        <mxCell id="6fW7ZVG2jqloHNHD9Qu5-64" value="action" style="shape=partialRectangle;overflow=hidden;connectable=0;fillColor=none;top=0;left=0;bottom=0;right=0;align=left;spacingLeft=6;fontStyle=1;" vertex="1" parent="6fW7ZVG2jqloHNHD9Qu5-62">
          <mxGeometry x="140" width="400" height="30" as="geometry">
            <mxRectangle width="400" height="30" as="alternateBounds" />
          </mxGeometry>
        </mxCell>
        <mxCell id="6fW7ZVG2jqloHNHD9Qu5-65" value="method" style="shape=partialRectangle;overflow=hidden;connectable=0;fillColor=none;top=0;left=0;bottom=0;right=0;align=left;spacingLeft=6;fontStyle=1;" vertex="1" parent="6fW7ZVG2jqloHNHD9Qu5-62">
          <mxGeometry x="540" width="110" height="30" as="geometry">
            <mxRectangle width="110" height="30" as="alternateBounds" />
          </mxGeometry>
        </mxCell>
        <mxCell id="6fW7ZVG2jqloHNHD9Qu5-66" value="" style="shape=partialRectangle;collapsible=0;dropTarget=0;pointerEvents=0;fillColor=none;points=[[0,0.5],[1,0.5]];portConstraint=eastwest;top=0;left=0;right=0;bottom=1;" vertex="1" parent="6fW7ZVG2jqloHNHD9Qu5-61">
          <mxGeometry y="60" width="650" height="30" as="geometry" />
        </mxCell>
        <mxCell id="6fW7ZVG2jqloHNHD9Qu5-67" value="myTable" style="shape=partialRectangle;overflow=hidden;connectable=0;fillColor=none;top=0;left=0;bottom=0;right=0;fontStyle=1;" vertex="1" parent="6fW7ZVG2jqloHNHD9Qu5-66">
          <mxGeometry width="140" height="30" as="geometry">
            <mxRectangle width="140" height="30" as="alternateBounds" />
          </mxGeometry>
        </mxCell>
        <mxCell id="6fW7ZVG2jqloHNHD9Qu5-68" value="/chatwithme/{{User}}" style="shape=partialRectangle;overflow=hidden;connectable=0;fillColor=none;top=0;left=0;bottom=0;right=0;align=left;spacingLeft=6;fontStyle=5;" vertex="1" parent="6fW7ZVG2jqloHNHD9Qu5-66">
          <mxGeometry x="140" width="400" height="30" as="geometry">
            <mxRectangle width="400" height="30" as="alternateBounds" />
          </mxGeometry>
        </mxCell>
        <mxCell id="6fW7ZVG2jqloHNHD9Qu5-69" value="GET" style="shape=partialRectangle;overflow=hidden;connectable=0;fillColor=none;top=0;left=0;bottom=0;right=0;align=left;spacingLeft=6;fontStyle=5;" vertex="1" parent="6fW7ZVG2jqloHNHD9Qu5-66">
          <mxGeometry x="540" width="110" height="30" as="geometry">
            <mxRectangle width="110" height="30" as="alternateBounds" />
          </mxGeometry>
        </mxCell>
        <mxCell id="6fW7ZVG2jqloHNHD9Qu5-70" style="shape=partialRectangle;collapsible=0;dropTarget=0;pointerEvents=0;fillColor=none;points=[[0,0.5],[1,0.5]];portConstraint=eastwest;top=0;left=0;right=0;bottom=1;" vertex="1" parent="6fW7ZVG2jqloHNHD9Qu5-61">
          <mxGeometry y="90" width="650" height="30" as="geometry" />
        </mxCell>
        <mxCell id="6fW7ZVG2jqloHNHD9Qu5-71" value="register" style="shape=partialRectangle;overflow=hidden;connectable=0;fillColor=none;top=0;left=0;bottom=0;right=0;fontStyle=1;" vertex="1" parent="6fW7ZVG2jqloHNHD9Qu5-70">
          <mxGeometry width="140" height="30" as="geometry">
            <mxRectangle width="140" height="30" as="alternateBounds" />
          </mxGeometry>
        </mxCell>
        <mxCell id="6fW7ZVG2jqloHNHD9Qu5-72" value="/createuser" style="shape=partialRectangle;overflow=hidden;connectable=0;fillColor=none;top=0;left=0;bottom=0;right=0;align=left;spacingLeft=6;fontStyle=5;" vertex="1" parent="6fW7ZVG2jqloHNHD9Qu5-70">
          <mxGeometry x="140" width="400" height="30" as="geometry">
            <mxRectangle width="400" height="30" as="alternateBounds" />
          </mxGeometry>
        </mxCell>
        <mxCell id="6fW7ZVG2jqloHNHD9Qu5-73" value="GET" style="shape=partialRectangle;overflow=hidden;connectable=0;fillColor=none;top=0;left=0;bottom=0;right=0;align=left;spacingLeft=6;fontStyle=5;" vertex="1" parent="6fW7ZVG2jqloHNHD9Qu5-70">
          <mxGeometry x="540" width="110" height="30" as="geometry">
            <mxRectangle width="110" height="30" as="alternateBounds" />
          </mxGeometry>
        </mxCell>
        <mxCell id="6fW7ZVG2jqloHNHD9Qu5-74" style="shape=partialRectangle;collapsible=0;dropTarget=0;pointerEvents=0;fillColor=none;points=[[0,0.5],[1,0.5]];portConstraint=eastwest;top=0;left=0;right=0;bottom=1;" vertex="1" parent="6fW7ZVG2jqloHNHD9Qu5-61">
          <mxGeometry y="120" width="650" height="30" as="geometry" />
        </mxCell>
        <mxCell id="6fW7ZVG2jqloHNHD9Qu5-75" value="logout" style="shape=partialRectangle;overflow=hidden;connectable=0;fillColor=none;top=0;left=0;bottom=0;right=0;fontStyle=1;" vertex="1" parent="6fW7ZVG2jqloHNHD9Qu5-74">
          <mxGeometry width="140" height="30" as="geometry">
            <mxRectangle width="140" height="30" as="alternateBounds" />
          </mxGeometry>
        </mxCell>
        <mxCell id="6fW7ZVG2jqloHNHD9Qu5-76" value="/logout_chat" style="shape=partialRectangle;overflow=hidden;connectable=0;fillColor=none;top=0;left=0;bottom=0;right=0;align=left;spacingLeft=6;fontStyle=5;" vertex="1" parent="6fW7ZVG2jqloHNHD9Qu5-74">
          <mxGeometry x="140" width="400" height="30" as="geometry">
            <mxRectangle width="400" height="30" as="alternateBounds" />
          </mxGeometry>
        </mxCell>
        <mxCell id="6fW7ZVG2jqloHNHD9Qu5-77" style="shape=partialRectangle;overflow=hidden;connectable=0;fillColor=none;top=0;left=0;bottom=0;right=0;align=left;spacingLeft=6;fontStyle=5;" vertex="1" parent="6fW7ZVG2jqloHNHD9Qu5-74">
          <mxGeometry x="540" width="110" height="30" as="geometry">
            <mxRectangle width="110" height="30" as="alternateBounds" />
          </mxGeometry>
        </mxCell>
        <mxCell id="6fW7ZVG2jqloHNHD9Qu5-78" value="/chatwithme  chatwithmepage.html" style="shape=table;startSize=30;container=1;collapsible=1;childLayout=tableLayout;fixedRows=1;rowLines=0;fontStyle=1;align=center;resizeLast=1;" vertex="1" parent="1">
          <mxGeometry x="250" y="470" width="655" height="150" as="geometry" />
        </mxCell>
        <mxCell id="6fW7ZVG2jqloHNHD9Qu5-79" style="shape=partialRectangle;collapsible=0;dropTarget=0;pointerEvents=0;fillColor=none;points=[[0,0.5],[1,0.5]];portConstraint=eastwest;top=0;left=0;right=0;bottom=1;" vertex="1" parent="6fW7ZVG2jqloHNHD9Qu5-78">
          <mxGeometry y="30" width="655" height="30" as="geometry" />
        </mxCell>
        <mxCell id="6fW7ZVG2jqloHNHD9Qu5-80" value="form id" style="shape=partialRectangle;overflow=hidden;connectable=0;fillColor=none;top=0;left=0;bottom=0;right=0;fontStyle=1;" vertex="1" parent="6fW7ZVG2jqloHNHD9Qu5-79">
          <mxGeometry width="140" height="30" as="geometry">
            <mxRectangle width="140" height="30" as="alternateBounds" />
          </mxGeometry>
        </mxCell>
        <mxCell id="6fW7ZVG2jqloHNHD9Qu5-81" value="action" style="shape=partialRectangle;overflow=hidden;connectable=0;fillColor=none;top=0;left=0;bottom=0;right=0;align=left;spacingLeft=6;fontStyle=1;" vertex="1" parent="6fW7ZVG2jqloHNHD9Qu5-79">
          <mxGeometry x="140" width="200" height="30" as="geometry">
            <mxRectangle width="200" height="30" as="alternateBounds" />
          </mxGeometry>
        </mxCell>
        <mxCell id="6fW7ZVG2jqloHNHD9Qu5-143" value="database actions" style="shape=partialRectangle;overflow=hidden;connectable=0;fillColor=none;top=0;left=0;bottom=0;right=0;align=left;spacingLeft=6;fontStyle=1;" vertex="1" parent="6fW7ZVG2jqloHNHD9Qu5-79">
          <mxGeometry x="340" width="200" height="30" as="geometry">
            <mxRectangle width="200" height="30" as="alternateBounds" />
          </mxGeometry>
        </mxCell>
        <mxCell id="6fW7ZVG2jqloHNHD9Qu5-82" value="method" style="shape=partialRectangle;overflow=hidden;connectable=0;fillColor=none;top=0;left=0;bottom=0;right=0;align=left;spacingLeft=6;fontStyle=1;" vertex="1" parent="6fW7ZVG2jqloHNHD9Qu5-79">
          <mxGeometry x="540" width="115" height="30" as="geometry">
            <mxRectangle width="115" height="30" as="alternateBounds" />
          </mxGeometry>
        </mxCell>
        <mxCell id="6fW7ZVG2jqloHNHD9Qu5-83" value="" style="shape=partialRectangle;collapsible=0;dropTarget=0;pointerEvents=0;fillColor=none;points=[[0,0.5],[1,0.5]];portConstraint=eastwest;top=0;left=0;right=0;bottom=1;" vertex="1" parent="6fW7ZVG2jqloHNHD9Qu5-78">
          <mxGeometry y="60" width="655" height="30" as="geometry" />
        </mxCell>
        <mxCell id="6fW7ZVG2jqloHNHD9Qu5-84" value="form_a" style="shape=partialRectangle;overflow=hidden;connectable=0;fillColor=none;top=0;left=0;bottom=0;right=0;fontStyle=1;" vertex="1" parent="6fW7ZVG2jqloHNHD9Qu5-83">
          <mxGeometry width="140" height="30" as="geometry">
            <mxRectangle width="140" height="30" as="alternateBounds" />
          </mxGeometry>
        </mxCell>
        <mxCell id="6fW7ZVG2jqloHNHD9Qu5-85" value="/chatwithme/{{sname}}" style="shape=partialRectangle;overflow=hidden;connectable=0;fillColor=none;top=0;left=0;bottom=0;right=0;align=left;spacingLeft=6;fontStyle=5;" vertex="1" parent="6fW7ZVG2jqloHNHD9Qu5-83">
          <mxGeometry x="140" width="200" height="30" as="geometry">
            <mxRectangle width="200" height="30" as="alternateBounds" />
          </mxGeometry>
        </mxCell>
        <mxCell id="6fW7ZVG2jqloHNHD9Qu5-144" value="messages.insert_one()" style="shape=partialRectangle;overflow=hidden;connectable=0;fillColor=none;top=0;left=0;bottom=0;right=0;align=left;spacingLeft=6;fontStyle=5;" vertex="1" parent="6fW7ZVG2jqloHNHD9Qu5-83">
          <mxGeometry x="340" width="200" height="30" as="geometry">
            <mxRectangle width="200" height="30" as="alternateBounds" />
          </mxGeometry>
        </mxCell>
        <mxCell id="6fW7ZVG2jqloHNHD9Qu5-86" value="POST" style="shape=partialRectangle;overflow=hidden;connectable=0;fillColor=none;top=0;left=0;bottom=0;right=0;align=left;spacingLeft=6;fontStyle=5;" vertex="1" parent="6fW7ZVG2jqloHNHD9Qu5-83">
          <mxGeometry x="540" width="115" height="30" as="geometry">
            <mxRectangle width="115" height="30" as="alternateBounds" />
          </mxGeometry>
        </mxCell>
        <mxCell id="6fW7ZVG2jqloHNHD9Qu5-87" style="shape=partialRectangle;collapsible=0;dropTarget=0;pointerEvents=0;fillColor=none;points=[[0,0.5],[1,0.5]];portConstraint=eastwest;top=0;left=0;right=0;bottom=1;" vertex="1" parent="6fW7ZVG2jqloHNHD9Qu5-78">
          <mxGeometry y="90" width="655" height="30" as="geometry" />
        </mxCell>
        <mxCell id="6fW7ZVG2jqloHNHD9Qu5-88" value="form_b" style="shape=partialRectangle;overflow=hidden;connectable=0;fillColor=none;top=0;left=0;bottom=0;right=0;fontStyle=1;" vertex="1" parent="6fW7ZVG2jqloHNHD9Qu5-87">
          <mxGeometry width="140" height="30" as="geometry">
            <mxRectangle width="140" height="30" as="alternateBounds" />
          </mxGeometry>
        </mxCell>
        <mxCell id="6fW7ZVG2jqloHNHD9Qu5-89" value="/chatwithme/{{sname}}" style="shape=partialRectangle;overflow=hidden;connectable=0;fillColor=none;top=0;left=0;bottom=0;right=0;align=left;spacingLeft=6;fontStyle=5;" vertex="1" parent="6fW7ZVG2jqloHNHD9Qu5-87">
          <mxGeometry x="140" width="200" height="30" as="geometry">
            <mxRectangle width="200" height="30" as="alternateBounds" />
          </mxGeometry>
        </mxCell>
        <mxCell id="6fW7ZVG2jqloHNHD9Qu5-145" style="shape=partialRectangle;overflow=hidden;connectable=0;fillColor=none;top=0;left=0;bottom=0;right=0;align=left;spacingLeft=6;fontStyle=5;" vertex="1" parent="6fW7ZVG2jqloHNHD9Qu5-87">
          <mxGeometry x="340" width="200" height="30" as="geometry">
            <mxRectangle width="200" height="30" as="alternateBounds" />
          </mxGeometry>
        </mxCell>
        <mxCell id="6fW7ZVG2jqloHNHD9Qu5-90" value="GET" style="shape=partialRectangle;overflow=hidden;connectable=0;fillColor=none;top=0;left=0;bottom=0;right=0;align=left;spacingLeft=6;fontStyle=5;" vertex="1" parent="6fW7ZVG2jqloHNHD9Qu5-87">
          <mxGeometry x="540" width="115" height="30" as="geometry">
            <mxRectangle width="115" height="30" as="alternateBounds" />
          </mxGeometry>
        </mxCell>
        <mxCell id="6fW7ZVG2jqloHNHD9Qu5-91" style="shape=partialRectangle;collapsible=0;dropTarget=0;pointerEvents=0;fillColor=none;points=[[0,0.5],[1,0.5]];portConstraint=eastwest;top=0;left=0;right=0;bottom=1;" vertex="1" parent="6fW7ZVG2jqloHNHD9Qu5-78">
          <mxGeometry y="120" width="655" height="30" as="geometry" />
        </mxCell>
        <mxCell id="6fW7ZVG2jqloHNHD9Qu5-92" value="form_c" style="shape=partialRectangle;overflow=hidden;connectable=0;fillColor=none;top=0;left=0;bottom=0;right=0;fontStyle=1;" vertex="1" parent="6fW7ZVG2jqloHNHD9Qu5-91">
          <mxGeometry width="140" height="30" as="geometry">
            <mxRectangle width="140" height="30" as="alternateBounds" />
          </mxGeometry>
        </mxCell>
        <mxCell id="6fW7ZVG2jqloHNHD9Qu5-93" value="/chatwith" style="shape=partialRectangle;overflow=hidden;connectable=0;fillColor=none;top=0;left=0;bottom=0;right=0;align=left;spacingLeft=6;fontStyle=5;" vertex="1" parent="6fW7ZVG2jqloHNHD9Qu5-91">
          <mxGeometry x="140" width="200" height="30" as="geometry">
            <mxRectangle width="200" height="30" as="alternateBounds" />
          </mxGeometry>
        </mxCell>
        <mxCell id="6fW7ZVG2jqloHNHD9Qu5-146" style="shape=partialRectangle;overflow=hidden;connectable=0;fillColor=none;top=0;left=0;bottom=0;right=0;align=left;spacingLeft=6;fontStyle=5;" vertex="1" parent="6fW7ZVG2jqloHNHD9Qu5-91">
          <mxGeometry x="340" width="200" height="30" as="geometry">
            <mxRectangle width="200" height="30" as="alternateBounds" />
          </mxGeometry>
        </mxCell>
        <mxCell id="6fW7ZVG2jqloHNHD9Qu5-94" value="GET" style="shape=partialRectangle;overflow=hidden;connectable=0;fillColor=none;top=0;left=0;bottom=0;right=0;align=left;spacingLeft=6;fontStyle=5;" vertex="1" parent="6fW7ZVG2jqloHNHD9Qu5-91">
          <mxGeometry x="540" width="115" height="30" as="geometry">
            <mxRectangle width="115" height="30" as="alternateBounds" />
          </mxGeometry>
        </mxCell>
        <mxCell id="6fW7ZVG2jqloHNHD9Qu5-98" value="" style="edgeStyle=elbowEdgeStyle;endArrow=classic;html=1;rounded=0;endSize=8;startSize=8;exitX=1;exitY=0.5;exitDx=0;exitDy=0;entryX=0.997;entryY=0.06;entryDx=0;entryDy=0;entryPerimeter=0;" edge="1" parent="6fW7ZVG2jqloHNHD9Qu5-78" source="6fW7ZVG2jqloHNHD9Qu5-87" target="6fW7ZVG2jqloHNHD9Qu5-78">
          <mxGeometry width="50" height="50" relative="1" as="geometry">
            <mxPoint x="520" y="105" as="sourcePoint" />
            <mxPoint x="656" y="15" as="targetPoint" />
            <Array as="points">
              <mxPoint x="700" y="60" />
            </Array>
          </mxGeometry>
        </mxCell>
        <mxCell id="6fW7ZVG2jqloHNHD9Qu5-119" value="" style="edgeStyle=elbowEdgeStyle;endArrow=classic;html=1;rounded=0;endSize=8;startSize=8;exitX=1;exitY=0.5;exitDx=0;exitDy=0;entryX=0.998;entryY=0.12;entryDx=0;entryDy=0;entryPerimeter=0;" edge="1" parent="6fW7ZVG2jqloHNHD9Qu5-78" source="6fW7ZVG2jqloHNHD9Qu5-83" target="6fW7ZVG2jqloHNHD9Qu5-78">
          <mxGeometry width="50" height="50" relative="1" as="geometry">
            <mxPoint x="90" y="50" as="sourcePoint" />
            <mxPoint x="460" y="20" as="targetPoint" />
            <Array as="points">
              <mxPoint x="680" y="50" />
            </Array>
          </mxGeometry>
        </mxCell>
        <mxCell id="6fW7ZVG2jqloHNHD9Qu5-96" value="" style="edgeStyle=elbowEdgeStyle;endArrow=classic;html=1;rounded=0;endSize=8;startSize=8;exitX=1;exitY=0.5;exitDx=0;exitDy=0;entryX=1;entryY=0.113;entryDx=0;entryDy=0;entryPerimeter=0;" edge="1" parent="1" source="6fW7ZVG2jqloHNHD9Qu5-91" target="6fW7ZVG2jqloHNHD9Qu5-61">
          <mxGeometry width="50" height="50" relative="1" as="geometry">
            <mxPoint x="910" y="620" as="sourcePoint" />
            <mxPoint x="950" y="310" as="targetPoint" />
            <Array as="points">
              <mxPoint x="960" y="460" />
            </Array>
          </mxGeometry>
        </mxCell>
        <mxCell id="6fW7ZVG2jqloHNHD9Qu5-121" value="" style="edgeStyle=elbowEdgeStyle;endArrow=classic;html=1;rounded=0;endSize=8;startSize=8;exitX=1;exitY=0.5;exitDx=0;exitDy=0;entryX=1;entryY=0.093;entryDx=0;entryDy=0;entryPerimeter=0;" edge="1" parent="1" source="6fW7ZVG2jqloHNHD9Qu5-47" target="6fW7ZVG2jqloHNHD9Qu5-61">
          <mxGeometry width="50" height="50" relative="1" as="geometry">
            <mxPoint x="910" y="220" as="sourcePoint" />
            <mxPoint x="890" y="310" as="targetPoint" />
            <Array as="points">
              <mxPoint x="960" y="270" />
            </Array>
          </mxGeometry>
        </mxCell>
        <mxCell id="6fW7ZVG2jqloHNHD9Qu5-122" value="/logout_chat " style="shape=table;startSize=30;container=1;collapsible=1;childLayout=tableLayout;fixedRows=1;rowLines=0;fontStyle=1;align=center;resizeLast=1;" vertex="1" parent="1">
          <mxGeometry x="250" y="640" width="650" height="150" as="geometry" />
        </mxCell>
        <mxCell id="6fW7ZVG2jqloHNHD9Qu5-123" style="shape=partialRectangle;collapsible=0;dropTarget=0;pointerEvents=0;fillColor=none;points=[[0,0.5],[1,0.5]];portConstraint=eastwest;top=0;left=0;right=0;bottom=1;" vertex="1" parent="6fW7ZVG2jqloHNHD9Qu5-122">
          <mxGeometry y="30" width="650" height="30" as="geometry" />
        </mxCell>
        <mxCell id="6fW7ZVG2jqloHNHD9Qu5-124" value="form id" style="shape=partialRectangle;overflow=hidden;connectable=0;fillColor=none;top=0;left=0;bottom=0;right=0;fontStyle=1;" vertex="1" parent="6fW7ZVG2jqloHNHD9Qu5-123">
          <mxGeometry width="140" height="30" as="geometry">
            <mxRectangle width="140" height="30" as="alternateBounds" />
          </mxGeometry>
        </mxCell>
        <mxCell id="6fW7ZVG2jqloHNHD9Qu5-125" value="action" style="shape=partialRectangle;overflow=hidden;connectable=0;fillColor=none;top=0;left=0;bottom=0;right=0;align=left;spacingLeft=6;fontStyle=1;" vertex="1" parent="6fW7ZVG2jqloHNHD9Qu5-123">
          <mxGeometry x="140" width="400" height="30" as="geometry">
            <mxRectangle width="400" height="30" as="alternateBounds" />
          </mxGeometry>
        </mxCell>
        <mxCell id="6fW7ZVG2jqloHNHD9Qu5-126" value="method" style="shape=partialRectangle;overflow=hidden;connectable=0;fillColor=none;top=0;left=0;bottom=0;right=0;align=left;spacingLeft=6;fontStyle=1;" vertex="1" parent="6fW7ZVG2jqloHNHD9Qu5-123">
          <mxGeometry x="540" width="110" height="30" as="geometry">
            <mxRectangle width="110" height="30" as="alternateBounds" />
          </mxGeometry>
        </mxCell>
        <mxCell id="6fW7ZVG2jqloHNHD9Qu5-127" value="" style="shape=partialRectangle;collapsible=0;dropTarget=0;pointerEvents=0;fillColor=none;points=[[0,0.5],[1,0.5]];portConstraint=eastwest;top=0;left=0;right=0;bottom=1;" vertex="1" parent="6fW7ZVG2jqloHNHD9Qu5-122">
          <mxGeometry y="60" width="650" height="60" as="geometry" />
        </mxCell>
        <mxCell id="6fW7ZVG2jqloHNHD9Qu5-128" value="if &#39;chatuser&#39; in session:" style="shape=partialRectangle;overflow=hidden;connectable=0;fillColor=none;top=0;left=0;bottom=0;right=0;fontStyle=1;" vertex="1" parent="6fW7ZVG2jqloHNHD9Qu5-127">
          <mxGeometry width="140" height="60" as="geometry">
            <mxRectangle width="140" height="60" as="alternateBounds" />
          </mxGeometry>
        </mxCell>
        <mxCell id="6fW7ZVG2jqloHNHD9Qu5-129" value="/createuser&#xa;&#xa;session.pop(&#39;chatuser&#39;, default=None)&#xa;" style="shape=partialRectangle;overflow=hidden;connectable=0;fillColor=none;top=0;left=0;bottom=0;right=0;align=left;spacingLeft=6;fontStyle=5;" vertex="1" parent="6fW7ZVG2jqloHNHD9Qu5-127">
          <mxGeometry x="140" width="400" height="60" as="geometry">
            <mxRectangle width="400" height="60" as="alternateBounds" />
          </mxGeometry>
        </mxCell>
        <mxCell id="6fW7ZVG2jqloHNHD9Qu5-130" value="" style="shape=partialRectangle;overflow=hidden;connectable=0;fillColor=none;top=0;left=0;bottom=0;right=0;align=left;spacingLeft=6;fontStyle=5;" vertex="1" parent="6fW7ZVG2jqloHNHD9Qu5-127">
          <mxGeometry x="540" width="110" height="60" as="geometry">
            <mxRectangle width="110" height="60" as="alternateBounds" />
          </mxGeometry>
        </mxCell>
        <mxCell id="6fW7ZVG2jqloHNHD9Qu5-131" style="shape=partialRectangle;collapsible=0;dropTarget=0;pointerEvents=0;fillColor=none;points=[[0,0.5],[1,0.5]];portConstraint=eastwest;top=0;left=0;right=0;bottom=1;" vertex="1" parent="6fW7ZVG2jqloHNHD9Qu5-122">
          <mxGeometry y="120" width="650" height="30" as="geometry" />
        </mxCell>
        <mxCell id="6fW7ZVG2jqloHNHD9Qu5-132" value="else:" style="shape=partialRectangle;overflow=hidden;connectable=0;fillColor=none;top=0;left=0;bottom=0;right=0;fontStyle=1;" vertex="1" parent="6fW7ZVG2jqloHNHD9Qu5-131">
          <mxGeometry width="140" height="30" as="geometry">
            <mxRectangle width="140" height="30" as="alternateBounds" />
          </mxGeometry>
        </mxCell>
        <mxCell id="6fW7ZVG2jqloHNHD9Qu5-133" value="/createuser" style="shape=partialRectangle;overflow=hidden;connectable=0;fillColor=none;top=0;left=0;bottom=0;right=0;align=left;spacingLeft=6;fontStyle=5;" vertex="1" parent="6fW7ZVG2jqloHNHD9Qu5-131">
          <mxGeometry x="140" width="400" height="30" as="geometry">
            <mxRectangle width="400" height="30" as="alternateBounds" />
          </mxGeometry>
        </mxCell>
        <mxCell id="6fW7ZVG2jqloHNHD9Qu5-134" value="" style="shape=partialRectangle;overflow=hidden;connectable=0;fillColor=none;top=0;left=0;bottom=0;right=0;align=left;spacingLeft=6;fontStyle=5;" vertex="1" parent="6fW7ZVG2jqloHNHD9Qu5-131">
          <mxGeometry x="540" width="110" height="30" as="geometry">
            <mxRectangle width="110" height="30" as="alternateBounds" />
          </mxGeometry>
        </mxCell>
        <mxCell id="6fW7ZVG2jqloHNHD9Qu5-141" value="" style="edgeStyle=elbowEdgeStyle;endArrow=classic;html=1;rounded=0;endSize=8;startSize=8;exitX=1;exitY=0.5;exitDx=0;exitDy=0;entryX=0.998;entryY=0.094;entryDx=0;entryDy=0;entryPerimeter=0;" edge="1" parent="1" source="6fW7ZVG2jqloHNHD9Qu5-127" target="6fW7ZVG2jqloHNHD9Qu5-43">
          <mxGeometry width="50" height="50" relative="1" as="geometry">
            <mxPoint x="999" y="718" as="sourcePoint" />
            <mxPoint x="878.0899999999999" y="132.04999999999995" as="targetPoint" />
            <Array as="points">
              <mxPoint x="1040" y="430" />
            </Array>
          </mxGeometry>
        </mxCell>
        <mxCell id="6fW7ZVG2jqloHNHD9Qu5-142" value="" style="edgeStyle=elbowEdgeStyle;endArrow=classic;html=1;rounded=0;endSize=8;startSize=8;exitX=1;exitY=0.5;exitDx=0;exitDy=0;" edge="1" parent="1" source="6fW7ZVG2jqloHNHD9Qu5-131">
          <mxGeometry width="50" height="50" relative="1" as="geometry">
            <mxPoint x="1002" y="741" as="sourcePoint" />
            <mxPoint x="1040" y="730" as="targetPoint" />
            <Array as="points">
              <mxPoint x="1040" y="740" />
            </Array>
          </mxGeometry>
        </mxCell>
      </root>
    </mxGraphModel>
  </diagram>
</mxfile>
